<svg display='block' height='41px' width='27px' viewBox='0 0 27 41'>
  <path fill='#3FB1CE' d='M27,13.5C27,19.07 20.25,27 14.75,34.5C14.02,35.5 12.98,35.5 12.25,34.5C6.75,27 0,19.22 0,13.5C0,6.04 6.04,0 13.5,0C20.96,0 27,6.04 27,13.5Z'></path>
  <path opacity='0.25' d='M13.5,0C6.04,0 0,6.04 0,13.5C0,19.22 6.75,27 12.25,34.5C13,35.52 14.02,35.5 14.75,34.5C20.25,27 27,19.07 27,13.5C27,6.04 20.96,0 13.5,0ZM13.5,1C20.42,1 26,6.58 26,13.5C26,15.9 24.5,19.18 22.22,22.74C19.95,26.3 16.71,30.14 13.94,33.91C13.74,34.18 13.61,34.32 13.5,34.44C13.39,34.32 13.26,34.18 13.06,33.91C10.28,30.13 7.41,26.31 5.02,22.77C2.62,19.23 1,15.95 1,13.5C1,6.58 6.58,1 13.5,1Z'></path>
<svg fill='#FFFFFF' xmlns="http://www.w3.org/2000/svg" height="27" viewBox="0 -960 960 960" width="27" preserveAspectRatio="xMidYMid meet">
<path d="M320-240h55v-200h105l40 80h200v-240H600l-40-80H320v440Zm237-175-40-80H375v-130h148l40 80h102v130H557ZM480-80q-82 0-155-31.5t-127.5-86Q143-252 111.5-325T80-480q0-83 31.5-156t86-127Q252-817 325-848.5T480-880q83 0 156 31.5T763-763q54 54 85.5 127T880-480q0 82-31.5 155T763-197.5q-54 54.5-127 86T480-80Zm0-60q142 0 241-99.5T820-480q0-142-99-241t-241-99q-141 0-240.5 99T140-480q0 141 99.5 240.5T480-140Zm0-340Z"/>  
</svg>
</svg>